<?xml version="1.0" encoding="UTF-8" standalone="no"?>
<svg
   xmlns:dc="http://purl.org/dc/elements/1.1/"
   xmlns:cc="http://creativecommons.org/ns#"
   xmlns:rdf="http://www.w3.org/1999/02/22-rdf-syntax-ns#"
   xmlns:svg="http://www.w3.org/2000/svg"
   xmlns="http://www.w3.org/2000/svg"
   xmlns:sodipodi="http://sodipodi.sourceforge.net/DTD/sodipodi-0.dtd"
   xmlns:inkscape="http://www.inkscape.org/namespaces/inkscape"
   viewBox="0 0 48 48"
   version="1.1"
   id="svg6"
   sodipodi:docname="controlcar-back.svg"
   inkscape:version="0.92.4 (5da689c313, 2019-01-14)">
  <defs
     id="defs3051">
    <style
       type="text/css"
       id="current-color-scheme">
        .VehicleSectionOutline {
            color:#000000;
        }
        .VehicleSectionBackground {
            color:#0000ff;
        }
      </style>
  </defs>
  <path
     style="fill:currentColor;fill-opacity:1;stroke:none"
     d="m 17.966232,47.658182 c -0.793245,0 -13.8363981,-14.047514 -13.7814259,-33.665803 L 4.3218384,4.0077193 c 0.00413,-0.847503 0.6386048,-1.52981 1.4318493,-1.52981 H 42.265842 c 0.793244,0 1.431849,0.682295 1.431849,1.52981 V 14.023296 c 0,19.587372 -12.945209,33.634886 -13.738454,33.634886 z m 0.490922,-12.546569 h 10.383703 c 0.793245,0 1.971279,-0.702176 2.245409,-1.478964 l 3.024361,-8.569945 c 0.27413,-0.776786 0.225702,-2.305105 -0.567442,-2.292522 l -19.229036,0.305085 c -0.793144,0.01258 -0.664234,1.049798 -0.414899,1.834895 l 2.770123,8.722487 c 0.249334,0.785098 0.994537,1.478964 1.787781,1.478964 z"
     id="rect824"
     inkscape:connector-curvature="0"
     sodipodi:nodetypes="sccsssssssssssssss"
     class="VehicleSectionBackground" />
  <path
     style="fill:none;stroke:currentColor;stroke-width:1;stroke-linecap:round;stroke-linejoin:round;stroke-miterlimit:10;stroke-dasharray:none;stroke-opacity:1;paint-order:normal"
     d="m 17.915384,47.658182 c -0.793245,0 -13.8178911,-15.72548 -13.7305779,-33.665803 L 4.3218384,4.0077193 c 0.00413,-0.847503 0.6386048,-1.52981 1.4318493,-1.52981 H 42.265842 c 0.793244,0 1.431849,0.682295 1.431849,1.52981 V 14.053314 c 0,17.879388 -12.945209,33.604868 -13.738454,33.604868 z m 0.54177,-12.546569 h 10.892178 c 0.793245,0 1.565679,-0.701761 1.838629,-1.478963 l 3.075208,-8.756386 c 0.27295,-0.777202 -0.33352,-1.93659 -1.126764,-1.93659 H 14.720929 c -0.793244,0 -1.289941,1.258293 -1.02507,2.038285 l 2.973514,8.756385 c 0.264872,0.779993 0.994537,1.377269 1.787781,1.377269 z"
     id="path5"
     inkscape:connector-curvature="0"
     sodipodi:nodetypes="sccsssssssssssssss"
     class="VehicleSectionOutline" />
</svg>
