<?xml version="1.0" encoding="UTF-8" standalone="no"?>
<svg
   xmlns:dc="http://purl.org/dc/elements/1.1/"
   xmlns:cc="http://creativecommons.org/ns#"
   xmlns:rdf="http://www.w3.org/1999/02/22-rdf-syntax-ns#"
   xmlns:svg="http://www.w3.org/2000/svg"
   xmlns="http://www.w3.org/2000/svg"
   xmlns:sodipodi="http://sodipodi.sourceforge.net/DTD/sodipodi-0.dtd"
   xmlns:inkscape="http://www.inkscape.org/namespaces/inkscape"
   viewBox="0 0 48 48"
   version="1.1"
   id="svg6"
   sodipodi:docname="controlcar.svg"
   inkscape:version="0.92.4 (5da689c313, 2019-01-14)">
  <defs
     id="defs3051">
    <style
       type="text/css"
       id="current-color-scheme">
        .VehicleSectionOutline {
            color:#000000;
        }
        .VehicleSectionBackground {
            color:#0000ff;
        }
      </style>
  </defs>
  <path
     style="fill:currentColor;fill-opacity:1;stroke:none"
     d="m 17.966232,2.3253669 c -0.793245,0 -13.8363981,14.0475141 -13.7814259,33.6658031 l 0.1370323,9.98466 c 0.00413,0.847503 0.6386048,1.52981 1.4318493,1.52981 H 42.265842 c 0.793244,0 1.431849,-0.682295 1.431849,-1.52981 V 35.960253 c 0,-19.587372 -12.945209,-33.6348861 -13.738454,-33.6348861 z m 0.490922,12.5465691 h 10.383703 c 0.793245,0 1.971279,0.702176 2.245409,1.478964 l 3.024361,8.569945 c 0.27413,0.776786 0.225702,2.305105 -0.567442,2.292522 L 14.314149,26.908282 C 13.521005,26.895698 13.649915,25.858484 13.89925,25.073387 L 16.669373,16.3509 c 0.249334,-0.785098 0.994537,-1.478964 1.787781,-1.478964 z"
     id="rect824"
     inkscape:connector-curvature="0"
     sodipodi:nodetypes="sccsssssssssssssss"
     class="VehicleSectionBackground" />
  <path
     style="fill:none;stroke:currentColor;stroke-width:1;stroke-linecap:round;stroke-linejoin:round;stroke-miterlimit:10;stroke-dasharray:none;stroke-opacity:1;paint-order:normal"
     d="m 17.915384,2.3253669 c -0.793245,0 -13.8178911,15.7254801 -13.7305779,33.6658031 l 0.1370323,9.98466 c 0.00413,0.847503 0.6386048,1.52981 1.4318493,1.52981 H 42.265842 c 0.793244,0 1.431849,-0.682295 1.431849,-1.52981 V 35.930235 c 0,-17.879388 -12.945209,-33.6048681 -13.738454,-33.6048681 z m 0.54177,12.5465691 h 10.892178 c 0.793245,0 1.565679,0.701761 1.838629,1.478963 l 3.075208,8.756386 c 0.27295,0.777202 -0.33352,1.93659 -1.126764,1.93659 H 14.720929 c -0.793244,0 -1.289941,-1.258293 -1.02507,-2.038285 l 2.973514,-8.756385 c 0.264872,-0.779993 0.994537,-1.377269 1.787781,-1.377269 z"
     id="path5"
     inkscape:connector-curvature="0"
     sodipodi:nodetypes="sccsssssssssssssss"
     class="VehicleSectionOutline" />
</svg>
