<?xml version="1.0" encoding="UTF-8" standalone="no"?>
<svg
   xmlns:dc="http://purl.org/dc/elements/1.1/"
   xmlns:cc="http://creativecommons.org/ns#"
   xmlns:rdf="http://www.w3.org/1999/02/22-rdf-syntax-ns#"
   xmlns:svg="http://www.w3.org/2000/svg"
   xmlns="http://www.w3.org/2000/svg"
   xmlns:sodipodi="http://sodipodi.sourceforge.net/DTD/sodipodi-0.dtd"
   xmlns:inkscape="http://www.inkscape.org/namespaces/inkscape"
   viewBox="0 0 48 48"
   version="1.1"
   id="svg6"
   sodipodi:docname="controlcar-front-double-deck.svg"
   inkscape:version="0.92.4 (5da689c313, 2019-01-14)">
  <defs
     id="defs3051">
    <style
       type="text/css"
       id="current-color-scheme">
        .VehicleSectionOutline {
            color:#000000;
        }
        .VehicleSectionBackground {
            color:#0000ff;
        }
      </style>
  </defs>
  <path
     style="fill:currentColor;fill-opacity:1;stroke:none"
     d="m 19.966232,2.3253669 c -0.793245,0 -13.8363981,5.3017514 -13.7814259,24.9200401 L 6.3218384,45.97583 c 0.00413,0.847503 0.6386048,1.52981 1.4318493,1.52981 H 44.265842 c 0.793244,0 1.431849,-0.682295 1.431849,-1.52981 l 0,-18.76134 c 0,-19.5873717 -12.945209,-24.8891231 -13.738454,-24.8891231 z m 0.490922,8.5465691 h 10.383703 c 0.793245,0 1.971278,0.702176 2.245409,1.478964 l 3.024361,8.569945 c 0.27413,0.776786 0.225702,2.305106 -0.567442,2.292522 L 16.314149,22.908282 C 15.521005,22.895698 15.649916,21.858484 15.89925,21.073387 L 18.669373,12.3509 c 0.249335,-0.785098 0.994537,-1.478964 1.787781,-1.478964 z"
     id="rect824"
     inkscape:connector-curvature="0"
     sodipodi:nodetypes="sccsssssssssssssss"
     class="VehicleSectionBackground" />
  <path
     style="fill:none;stroke:currentColor;stroke-width:1;stroke-linecap:round;stroke-linejoin:round;stroke-miterlimit:10;stroke-dasharray:none;stroke-opacity:1;paint-order:normal"
     d="m 19.915384,2.3253669 c -0.793245,0 -13.8178911,5.5559886 -13.7305779,23.4963111 L 6.3218384,45.97583 c 0.00413,0.847503 0.6386048,1.52981 1.4318493,1.52981 H 44.265842 c 0.793244,0 1.431849,-0.682295 1.431849,-1.52981 V 25.760743 c 0,-17.8793875 -12.945209,-23.4353761 -13.738454,-23.4353761 z m 0.54177,8.5465691 h 10.892178 c 0.793245,0 1.565679,0.701761 1.838629,1.478963 l 3.075208,8.756386 c 0.27295,0.777202 -0.33352,1.93659 -1.126764,1.93659 H 16.720929 c -0.793244,0 -1.289941,-1.258293 -1.02507,-2.038285 l 2.973514,-8.756385 c 0.264872,-0.779993 0.994537,-1.377269 1.787781,-1.377269 z"
     id="path5"
     inkscape:connector-curvature="0"
     sodipodi:nodetypes="sccsssssssssssssss"
     class="VehicleSectionOutline" />
  <rect
     style="fill:currentColor;fill-opacity:1;fill-rule:evenodd;stroke:none"
     id="rect4765"
     width="38.033894"
     height="15.966101"
     x="2.5423729"
     y="28.118645"
     rx="3"
     ry="3"
     class="VehicleSectionBackground" />
  <rect
     ry="3"
     rx="3"
     y="28.118645"
     x="2.5423729"
     height="15.966101"
     width="38.033894"
     id="rect4769"
     style="fill:none;stroke:currentColor;stroke-width:1;stroke-miterlimit:4;stroke-dasharray:none;stroke-opacity:1"
     class="VehicleSectionOutline" />
</svg>
