<?xml version="1.0" encoding="UTF-8" standalone="no"?>
<svg
   xmlns:dc="http://purl.org/dc/elements/1.1/"
   xmlns:cc="http://creativecommons.org/ns#"
   xmlns:rdf="http://www.w3.org/1999/02/22-rdf-syntax-ns#"
   xmlns:svg="http://www.w3.org/2000/svg"
   xmlns="http://www.w3.org/2000/svg"
   xmlns:sodipodi="http://sodipodi.sourceforge.net/DTD/sodipodi-0.dtd"
   xmlns:inkscape="http://www.inkscape.org/namespaces/inkscape"
   viewBox="0 0 48 48"
   version="1.1"
   id="svg6"
   sodipodi:docname="engine.svg"
   inkscape:version="0.92.4 (5da689c313, 2019-01-14)">
  <defs
     id="defs3051">
    <style
       type="text/css"
       id="current-color-scheme">
        .VehicleSectionOutline {
            color:#000000;
        }
        .VehicleSectionBackground {
            color:#0000ff;
        }
      </style>
  </defs>
  <path
     style="fill:currentColor;fill-opacity:1;stroke:none;stroke-width:0.99999982"
     d="m 7.2539062,2.4570312 c -1.6619999,0 -2.9999999,1.3380001 -3,3 V 44.695312 c 0,1.662 1.3380001,3 3,3 H 40.542969 c 1.662,0 3,-1.338 3,-3 V 5.4570312 c 0,-1.6619999 -1.338,-3 -3,-3 z m 4.7636718,2.5761719 h 24.015625 c 1.108,0 2,0.892 2,2 v 3.9999999 c 0,1.108 -0.892,2 -2,2 H 12.017578 c -1.108,0 -2,-0.892 -2,-2 V 7.0332031 c 0,-1.108 0.892,-2 2,-2 z m 0,32.0175779 h 24.015625 c 1.108,0 2,0.892 2,2 V 43 c 0,1.108 -0.892,2 -2,2 H 12.017578 c -1.108,0 -2,-0.892 -2,-2 v -3.949219 c 0,-1.108 0.892,-2 2,-2 z"
     id="rect824"
     class="VehicleSectionBackground"
     inkscape:connector-curvature="0"
     sodipodi:nodetypes="sssssssssssssssssssssssssss" />
  <path
     style="fill:none;stroke:currentColor;stroke-width:1;stroke-linecap:round;stroke-linejoin:round;stroke-miterlimit:10;stroke-dasharray:none;stroke-opacity:1;paint-order:normal"
     d="m 7.5,2.5 c -1.662,0 -3,1.338 -3,3 v 39 c 0,1.662 1.338,3 3,3 h 33 c 1.662,0 3,-1.338 3,-3 v -39 c 0,-1.662 -1.338,-3 -3,-3 z m 4.517578,2.5332031 h 24.015625 c 1.108,0 2,0.892 2,2 v 3.9999999 c 0,1.108 -0.892,2 -2,2 H 12.017578 c -1.108,0 -2,-0.892 -2,-2 V 7.0332031 c 0,-1.108 0.892,-2 2,-2 z m 0,32.0175779 h 24.015625 c 1.108,0 2,0.892 2,2 V 43 c 0,1.108 -0.892,2 -2,2 H 12.017578 c -1.108,0 -2,-0.892 -2,-2 v -3.949219 c 0,-1.108 0.892,-2 2,-2 z"
     id="rect5"
     class="VehicleSectionOutline"
     inkscape:connector-curvature="0"
     sodipodi:nodetypes="sssssssssssssssssssssssssss" />
</svg>
