<?xml version="1.0" encoding="UTF-8" standalone="no"?>
<svg viewBox="0 0 22 22" version="1.1" xmlns="http://www.w3.org/2000/svg" xmlns:svg="http://www.w3.org/2000/svg">
    <style
       type="text/css"
       id="current-color-scheme">
      .ColorScheme-Text {
        color:#232629;
      }
      </style>
  <path
     style="fill:currentColor;fill-opacity:1;stroke:none;stroke-width:0.999997"
     d="M 11,3.0029635 C 9.233354,3.0029591 7.8011985,4.4351147 7.8011854,6.2017781 7.8011985,7.9684415 9.233354,9.4005971 11,9.4005927 12.766646,9.4005971 14.198802,7.9684415 14.198815,6.2017781 14.198802,4.4351147 12.766646,3.0029591 11,3.0029635 Z m 0,7.1973325 c -3.2211896,0.0038 -2.9648918,6.28036 -3.1410235,8.796741 H 14.142586 C 13.985256,16.404557 14.165154,10.203322 11,10.200296 Z"
     class="ColorScheme-Text"/>
  <path
     style="color:#232629;fill:currentColor;fill-opacity:1;stroke:none;stroke-width:0.999997"
     d="m 18.332347,3 c -1.766646,-4.4e-6 -3.198802,1.4321512 -3.198815,3.1988146 1.3e-5,1.7666634 1.432169,3.198819 3.198815,3.1988146 1.766646,4.4e-6 3.198802,-1.4321512 3.198815,-3.1988146 C 21.531149,4.4321512 20.098993,2.9999956 18.332347,3 Z m 0,7.197333 c -3.22119,0.0038 -2.964892,6.280359 -3.141024,8.79674 h 6.28361 c -0.15733,-2.59248 0.02257,-8.793714 -3.142586,-8.79674 z"
     class="ColorScheme-Text"/>
  <path
     style="color:#232629;fill:currentColor;fill-opacity:1;stroke:none;stroke-width:0.999997"
     d="M 3.9317534,3 C 2.165107,2.9999956 0.73295134,4.4321512 0.73293824,6.1988146 0.73295134,7.965478 2.165107,9.3976336 3.9317534,9.3976292 5.6983994,9.3976336 7.1305554,7.965478 7.1305684,6.1988146 7.1305554,4.4321512 5.6983994,2.9999956 3.9317534,3 Z m 0,7.197333 c -3.22119016,0.0038 -2.96489222,6.280359 -3.14102404,8.79674 H 7.0743394 c -0.15733,-2.59248 0.02257,-8.793714 -3.142586,-8.79674 z"
     class="ColorScheme-Text"/>
</svg>
