<svg xmlns="http://www.w3.org/2000/svg" fill="none" viewBox="0 0 24 24">
  <defs>
    <style type="text/css" id="current-color-scheme">
      .ColorScheme-Text { color: #232629; }
    </style>
  </defs>
  <path fill-rule="evenodd" d="M9 4a2 2 0 1 1-4 0 2 2 0 0 1 4 0M4.616 9.154l-1.687 4.217a1 1 0 1 1-1.857-.742l2-5A1 1 0 0 1 4.024 7H10a1 1 0 0 1 1 1v5a1 1 0 0 1-1.875.485V9a.125.125 0 0 0-.25 0v11.485a1 1 0 0 1-1.75 0V16a.125.125 0 0 0-.25 0v4.485a1 1 0 0 1-1.75 0V16H3l2-5.5zM19 9a2 2 0 1 0 0-4 2 2 0 0 0 0 4m1 2a1 1 0 1 0-2 0v3.59a1.5 1.5 0 0 0 1.5 1.5H21V20a1 1 0 1 0 2 0v-4.41a1.5 1.5 0 0 0-1.5-1.5H20zm-2.965 1.136c.143-.533-.175-1.092-.726-1.126a5.002 5.002 0 0 0-4.64 7.49 5 5 0 0 0 8.807-.272c.246-.495-.079-1.05-.612-1.193-.534-.143-1.07.19-1.38.647a2.997 2.997 0 0 1-3.81 1.009 3 3 0 0 1 1.112-5.683c.55-.04 1.106-.338 1.25-.872" clip-rule="evenodd" style="fill:currentColor" class="ColorScheme-Text"/>
</svg>