<?xml version="1.0" encoding="UTF-8" standalone="no"?>
<svg viewBox="0 0 22 22" version="1.1" xmlns="http://www.w3.org/2000/svg" xmlns:svg="http://www.w3.org/2000/svg">
  <style type="text/css" id="current-color-scheme">
      .ColorScheme-Text {
        color:#4d4d4d;
      }
      </style>
  <g transform="matrix(0.00833759,0,0,-0.00833759,0.12906557,17.016072)">
    <path fill="currentColor" class="ColorScheme-Text" d="m 1265,1530 v -373 q 0,-23 8,-54 8,-31 19,-51 l 50,-89 h 217 V 860 h 235 q 44,0 81.5,-32 37.5,-32 43.5,-78 l 54,-442 q 3,-26 3,-59 0,-41 -5.5,-84 Q 1965,122 1957,90 L 1935,3 q -12,-46 -54.5,-77 -42.5,-31 -86.5,-31 H 807 q -47,0 -88,32 -41,32 -52,76 l -24,87 q -9,32 -13,76.5 -4,44.5 -5,86.5 0,31 3,55 l 54,442 q 6,46 43.5,78 37.5,32 81.5,32 h 234 v 103 h 84 q -2,4 -4,10 l -6,15 q -4,9 -9,24 l -13,37 q -8,19 -13.5,52 -5.5,33 -5.5,56 v 373 H 131 v 65 h 943 q 0,58 9.5,83 9.5,25 46.5,25 h 229 q 23,0 39.5,-16 16.5,-16 16.5,-39 0,-19 -11,-33.5 -11,-14.5 -28,-19.5 h 1094 v -65 z M 1054,696 q 0,14 -10,23.5 -10,9.5 -24,9.5 H 813 q -14,0 -24.5,-9.5 Q 778,710 776,696 L 742,320 v -4 q 0,-12 8.5,-20.5 Q 759,287 772,287 h 248 q 14,0 24,9.5 10,9.5 10,23.5 z m 493,-376 q 0,-14 10,-23.5 10,-9.5 24,-9.5 h 247 q 14,0 22.5,8.5 8.5,8.5 8.5,20.5 v 4 l -35,376 q -2,14 -12,23.5 -10,9.5 -24,9.5 h -207 q -14,0 -24,-9.5 -10,-9.5 -10,-23.5 z m -350,409 q -14,0 -23.5,-9.5 Q 1164,710 1164,696 V 320 q 0,-14 9.5,-23.5 9.5,-9.5 23.5,-9.5 h 207 q 14,0 23.5,9.5 9.5,9.5 9.5,23.5 v 376 q 0,14 -9.5,23.5 -9.5,9.5 -23.5,9.5 z" style="stroke-width:119.939" />
  </g>
</svg>
