<?xml version="1.0" encoding="UTF-8" standalone="no"?>
<svg viewBox="0 0 22 22" height="22" width="22" version="1.1" xmlns="http://www.w3.org/2000/svg" xmlns:svg="http://www.w3.org/2000/svg">
<style type="text/css" id="current-color-scheme">
.ColorScheme-Text {
    color:#4d4d4d;
}
</style>
  <path d="m 17.44514,8.5100008 c 0.419671,0.295238 0.664369,0.6205013 0.78374,1.0327716 0.03923,0.1355491 0.0417,0.1633867 0.04277,0.4420454 9.45e-4,0.2564742 -0.0018,0.3237342 -0.03207,0.4661552 -0.05947,0.279527 -0.169519,0.591857 -0.299247,0.863993 l -0.05699,0.124582 -0.195937,0.01214 c -0.712789,0.04179 -1.28635,0.18647 -1.784795,0.454096 -1.069041,0.573974 -1.740543,1.652347 -2.073357,3.323359 l -0.02849,0.13261 -0.138935,0.144674 c -0.07704,0.0784 -0.180812,0.172729 -0.23156,0.208966 -0.461195,0.329147 -1.123137,0.526109 -2.062669,0.61886 -0.421786,0.04172 -0.704434,0.0499 -2.0662328,0.0643 -0.7984546,0.0086 -1.45605,0.01954 -1.4606117,0.02413 -0.00437,0.0045 -0.035257,0.0082 -0.067688,0.0082 -0.070697,0 -0.065864,0.03088 -0.024934,-0.337561 0.06322,-0.569479 0.05618,-1.230276 -0.017895,-1.707931 C 7.517353,13.011317 6.7642227,12.109298 5.4858673,11.696798 4.924206,11.515552 4.4300597,11.450198 3.5870727,11.435589 l -0.537933,-0.01214 -0.035621,-0.04018 C 2.8338364,11.162305 2.741793,10.824413 2.7926455,10.567496 2.8166857,10.446165 2.8996953,10.270474 2.9707757,10.19377 L 4.485073,8.4576982 c 3.283304,-0.011736 4.1595933,0.006 7.295936,0.037114 0.174227,0.046376 0.967758,1.8394048 1.05074,1.9882588 0.04485,0.08047 0.107085,0.25803 0.12113,0.345596 0.0057,0.03557 0.01186,0.0643 0.01423,0.0643 0.02112,0 0.313778,-0.131393 0.46312,-0.208965 0.399637,-0.207582 0.901028,-1.0210035 1.154555,-1.3542054 C 14.826206,6.12376 10.869787,-2.386554 17.445143,8.5100015 Z m -0.153181,3.3072852 c 0.955724,-0.07442 1.896574,0.311426 2.564978,1.052865 0.929254,1.030781 1.147754,2.571833 0.545057,3.841756 -0.501138,1.05594 -1.491661,1.768739 -2.600601,1.872657 -0.416147,0.03899 -0.914995,-0.02114 -1.307427,-0.160756 -0.970457,-0.345218 -1.725765,-1.145604 -2.041291,-2.161991 -0.291148,-0.937833 -0.179574,-1.981666 0.299244,-2.808982 0.552487,-0.954612 1.480507,-1.553074 2.54004,-1.635549 z m -13.0065724,0.008 c 0.3904239,4.3e-4 0.5009373,0.01297 0.7837441,0.08841 1.2752437,0.340345 2.2254247,1.457382 2.4082277,2.829077 0.033652,0.253089 0.033963,0.696978 0,0.936324 C 7.3151334,16.822446 6.6509205,17.769568 5.6676238,18.26706 5.355653,18.424894 4.963648,18.543811 4.6095705,18.58453 4.4060431,18.60793 3.9680627,18.59073 3.7545781,18.55237 2.383336,18.304858 1.3436506,17.211216 1.1005393,15.759463 c -0.04611,-0.274528 -0.051692,-0.778261 -0.010759,-1.052865 0.1102597,-0.738393 0.422409,-1.379955 0.9191162,-1.90079 0.4815461,-0.504935 1.0499287,-0.817649 1.7456071,-0.952396 0.122936,-0.02403 0.229614,-0.02852 0.5308083,-0.02812 z m 13.1276964,1.161382 c -0.632004,0.03192 -1.203487,0.352858 -1.588859,0.888103 -0.120158,0.166884 -0.281551,0.505651 -0.334874,0.703251 -0.216955,0.804007 -0.0063,1.636178 0.55931,2.214234 0.14327,0.146387 0.356069,0.312179 0.509429,0.393818 0.119777,0.06378 0.366692,0.154725 0.512996,0.188879 0.181158,0.04257 0.593776,0.05535 0.773056,0.02413 0.861441,-0.149909 1.532978,-0.820069 1.731361,-1.71995 0.04554,-0.20663 0.0557,-0.611736 0.02139,-0.823804 C 19.413195,13.720552 18.49261,12.932168 17.4131,12.986684 Z m -13.120572,0.008 c -0.3798591,-8.29e-4 -0.6554501,0.06779 -0.9725535,0.241113 -0.2208153,0.120692 -0.3824657,0.244049 -0.5557441,0.434 -0.2845855,0.311982 -0.4566018,0.653686 -0.5486217,1.085016 -0.037977,0.178056 -0.044778,0.600616 -0.014231,0.803713 0.078522,0.522075 0.3588377,1.035024 0.7445556,1.362295 0.2968718,0.251886 0.6356805,0.413617 0.9903669,0.474192 0.1756679,0.03009 0.5438117,0.03027 0.7018051,0 1.250642,-0.23959 2.0153035,-1.531755 1.6672398,-2.817023 C 6.1257573,13.914955 5.615113,13.348527 4.9872156,13.115267 4.746798,13.025979 4.5686258,12.995357 4.2925329,12.994712 Z" class="ColorScheme-Text" style="fill:currentColor;stroke-width:1" />
</svg>
