<svg xmlns="http://www.w3.org/2000/svg" fill="none" viewBox="0 0 24 24">
  <defs>
    <style type="text/css" id="current-color-scheme">
      .ColorScheme-Text { color: #232629; }
    </style>
  </defs>
  <path fill-rule="evenodd" d="M16 3.586A2 2 0 0 1 17.414 3H19a3 3 0 0 1 3 3v1a3 3 0 0 1-3 3h-.586L8 20.414A2 2 0 0 1 6.586 21H5a3 3 0 0 1-3-3v-1a3 3 0 0 1 3-3h.586L9 10.586V8a1 1 0 0 1 1-1h1a1 1 0 0 1 .937.65zM19 5h-1.586L7 15.414A2 2 0 0 1 5.586 16H5a1 1 0 0 0-1 1v1a1 1 0 0 0 1 1h1.586L17 8.586A2 2 0 0 1 18.414 8H19a1 1 0 0 0 1-1V6a1 1 0 0 0-1-1m-7-.5a1.5 1.5 0 1 1-3 0 1.5 1.5 0 0 1 3 0" clip-rule="evenodd" style="fill:currentColor" class="ColorScheme-Text"/>
</svg>