<?xml version="1.0" encoding="UTF-8" standalone="no"?>
<svg version="1.1" width="22" height="22" viewBox="0 0 22 22" xmlns="http://www.w3.org/2000/svg" xmlns:svg="http://www.w3.org/2000/svg">
<style type="text/css" id="current-color-scheme">
.ColorScheme-Text {
    color:#4d4d4d;
}
</style>
<g transform="matrix(-0.06020314,0,0,-0.06044152,21.017599,17.129339)">
    <path class="ColorScheme-Text" style="fill:currentColor;fill-opacity:1;fill-rule:nonzero;stroke:none;stroke-width:0.603306" d="m 58.330229,37.531 c 0,12.438 -8.365229,20.802015 -20.799229,20.802015 -12.437,0 -20.794229,-8.364015 -20.794229,-20.802015 0,-12.437 8.357229,-20.805015 20.794229,-20.805015 12.434,0 20.799229,8.368015 20.799229,20.805015 z m 16.731771,0 C 75.062,16.805 58.258,0 37.531,0 16.805,0 0,16.805 0,37.531 c 0,20.727 16.805,37.532 37.531,37.532 20.727,0 37.531,-16.805 37.531,-37.532"/>
    <path class="ColorScheme-Text" style="fill:currentColor;fill-opacity:1;fill-rule:nonzero;stroke:none;stroke-width:0.603306" d="m 312.85323,37.531 c 0,12.438 -8.36123,20.802015 -20.79423,20.802015 -12.442,0 -20.45508,-8.364015 -20.45508,-20.802015 0,-12.437 8.01308,-20.805015 20.45508,-20.805015 12.433,0 20.79423,8.368015 20.79423,20.805015 z m 16.73277,0 C 329.586,16.805 312.781,0 292.059,0 c -20.731,0 -37.532,16.805 -37.532,37.531 0,20.727 16.801,37.532 37.532,37.532 20.722,0 37.527,-16.805 37.527,-37.532"/>
    <path class="ColorScheme-Text" style="fill:currentColor;fill-opacity:1;fill-rule:nonzero;stroke:none;stroke-width:0.603306" d="M 74.106463,187.57723 59.462652,106.62812 105.27977,49.66 l 60.94323,0.098 9.523,-0.039 63.52,-0.059 -3.786,-4.509406 56.579,0.008 c 3.832,0 6.941,-3.795594 6.941,-7.627594 0,-3.835 -3.109,-7.630594 -6.941,-7.630594 l -66.278,0.024 L 220.93,23.68 H 102.379 L 91.391,34.817 v 7.925 L 54.71008,89.353031 44.750154,36.567 c -0.48,-3.43 -3.758154,-5.981 -7.219154,-5.981 -3.836,0 -6.941,3.11 -6.941,6.945 0,0.325 0.019,0.649 0.066,0.969 l 28.426,149.07723 1.691812,7.26404 c 0,0 2.957153,6.37008 6.789103,6.38966 l 40.187085,0.2053 c 3.83195,0.0196 6.941,-3.109 6.941,-6.941 0,-3.836 -3.109,-7.97439 -6.941,-7.97439 l -33.643537,0.028"/>
  </g>
</svg>
