<svg xmlns="http://www.w3.org/2000/svg" fill="none" viewBox="0 0 24 24">
  <defs>
    <style type="text/css" id="current-color-scheme">
      .ColorScheme-Text { color: #232629; }
    </style>
  </defs>
  <path fill-rule="evenodd" d="M18.698 2.284A.997.997 0 0 1 19 3v18a1 1 0 1 1-2 0v-1H6a1 1 0 1 1 0-2h4.317a.997.997 0 0 1 1.377 0H17v-5.306a.997.997 0 0 1 0-1.377V11H6a1 1 0 1 1 0-2h4.317a.997.997 0 0 1 1.377 0H17V3.694a1 1 0 0 1 .686-1.688A8 8 0 0 1 18 2c.272 0 .518.108.698.284m-2.183 9.803a1 1 0 0 1-.592 1.284 5.858 5.858 0 0 0-.435.18 1 1 0 1 1-.837-1.816 7.827 7.827 0 0 1 .58-.24 1 1 0 0 1 1.284.591m-2.532 1.094a1 1 0 0 1-.056 1.413 5.808 5.808 0 0 0-.333.333 1 1 0 0 1-1.469-1.357 8.15 8.15 0 0 1 .445-.445 1 1 0 0 1 1.413.056m-1.921 1.98a1 1 0 0 1 .49 1.327 6.18 6.18 0 0 0-.181.435 1 1 0 0 1-1.876-.692 8.016 8.016 0 0 1 .24-.58 1 1 0 0 1 1.327-.49m3.861-10.79a1 1 0 0 0-.692-1.877 8.016 8.016 0 0 0-.58.24 1 1 0 0 0 .837 1.817 6.07 6.07 0 0 1 .435-.18m-1.996 1.223a1 1 0 1 0-1.357-1.469 8.152 8.152 0 0 0-.445.445 1 1 0 0 0 1.47 1.357 5.886 5.886 0 0 1 .332-.333m-1.376 1.894a1 1 0 1 0-1.816-.837 7.82 7.82 0 0 0-.24.58 1 1 0 1 0 1.876.692 5.865 5.865 0 0 1 .18-.435" clip-rule="evenodd" style="fill:currentColor" class="ColorScheme-Text"/>
</svg>