<svg fill="none" viewBox="0 0 22 22" xmlns="http://www.w3.org/2000/svg">
  <defs id="defs1">
    <style id="current-color-scheme" type="text/css">.ColorScheme-Text { color: #232629; }</style>
  </defs>
  <path class="ColorScheme-Text" d="M2 9.5A6.5 6.5 0 0 1 8.5 3h5A6.5 6.5 0 0 1 20 9.5V20a1 1 0 1 0 2 0V9.5A8.5 8.5 0 0 0 13.5 1h-5A8.5 8.5 0 0 0 0 9.5V20a1 1 0 1 0 2 0zm4.72-4.722c-.5 0-.952.298-1.149.757L3.12 11.258l-.024.06a.5.5 0 0 0-.095.293v7a.5.5 0 0 0 .5.5h1.667a.5.5 0 0 0 .5-.5v-2.167h10.666v2.167a.5.5 0 0 0 .5.5H18.5a.5.5 0 0 0 .5-.5v-7c0-.11-.035-.21-.095-.293l-.024-.06-2.453-5.723a1.25 1.25 0 0 0-1.148-.757ZM5.405 11l1.81-4.222h7.57L16.595 11Zm.707 3.667a1.334 1.334 0 1 0 0-2.667 1.334 1.334 0 0 0 0 2.667m9.777 0a1.334 1.334 0 1 0 0-2.667 1.334 1.334 0 0 0 0 2.667" clip-rule="evenodd" fill="currentColor" fill-rule="evenodd"/>
</svg>
