<svg xmlns="http://www.w3.org/2000/svg" fill="none" viewBox="0 0 24 24">
  <defs>
    <style type="text/css" id="current-color-scheme">
      .ColorScheme-Text { color: #232629; }
    </style>
  </defs>
  <path fill-rule="evenodd" d="M3 10.5A6.5 6.5 0 0 1 9.5 4h5a6.5 6.5 0 0 1 6.5 6.5V21a1 1 0 1 0 2 0V10.5A8.5 8.5 0 0 0 14.5 2h-5A8.5 8.5 0 0 0 1 10.5V21a1 1 0 1 0 2 0zm4.72-4.722c-.5 0-.952.298-1.149.757L4.12 12.258a1.3 1.3 0 0 0-.024.06.498.498 0 0 0-.095.293v7a.5.5 0 0 0 .5.5h1.667a.5.5 0 0 0 .5-.5v-2.167h10.666v2.167a.5.5 0 0 0 .5.5H19.5a.5.5 0 0 0 .5-.5v-7c0-.11-.035-.21-.095-.293a1.216 1.216 0 0 0-.024-.06l-2.453-5.723a1.25 1.25 0 0 0-1.148-.757zM6.405 12l1.81-4.222h7.57L17.595 12zm.707 3.667a1.333 1.333 0 1 0 0-2.667 1.333 1.333 0 0 0 0 2.667m9.777 0a1.333 1.333 0 1 0 0-2.667 1.333 1.333 0 0 0 0 2.667" clip-rule="evenodd" style="fill:currentColor" class="ColorScheme-Text"/>
</svg>