<svg xmlns="http://www.w3.org/2000/svg" fill="none" viewBox="0 0 24 24">
  <defs>
    <style type="text/css" id="current-color-scheme">
      .ColorScheme-Text { color: #232629; }
    </style>
  </defs>
  <path fill-rule="evenodd" d="M4 2a1 1 0 0 1 1 1v6.5a.5.5 0 0 0 .5.5H6V3a1 1 0 0 1 2 0v7h.5a.5.5 0 0 0 .5-.5V3a1 1 0 0 1 2 0v6.5A2.5 2.5 0 0 1 8.5 12H8v9a1 1 0 1 1-2 0v-9h-.5A2.5 2.5 0 0 1 3 9.5V3a1 1 0 0 1 1-1m15 2.1A5.002 5.002 0 0 0 15 9v4h4zM14.5 15H19v6a1 1 0 1 0 2 0V3a1 1 0 0 0-1-1 7 7 0 0 0-7 7v4.5a1.5 1.5 0 0 0 1.5 1.5" clip-rule="evenodd" style="fill:currentColor" class="ColorScheme-Text"/>
</svg>