<svg fill="none" viewBox="0 0 22 22" xmlns="http://www.w3.org/2000/svg">
  <defs id="defs1">
    <style id="current-color-scheme" type="text/css">.ColorScheme-Text { color: #232629; }</style>
  </defs>
  <path class="ColorScheme-Text" d="M5.016 3.758A1.25 1.25 0 0 1 6.165 3h9.67c.5 0 .952.298 1.15.758l2.688 6.273A.5.5 0 0 1 20 10.5v8a.5.5 0 0 1-.5.5h-2a.5.5 0 0 1-.5-.5V16H5v2.5a.5.5 0 0 1-.5.5h-2a.5.5 0 0 1-.5-.5v-8a.5.5 0 0 1 .328-.47zM15.34 5l2.142 5H4.518L6.66 5zM7 12.5a1.5 1.5 0 1 1-3 0 1.5 1.5 0 0 1 3 0m11 0a1.5 1.5 0 1 1-3 0 1.5 1.5 0 0 1 3 0" clip-rule="evenodd" fill="currentColor" fill-rule="evenodd"/>
</svg>
