<svg fill="none" viewBox="0 0 22 22" xmlns="http://www.w3.org/2000/svg">
  <defs>
    <style id="current-color-scheme" type="text/css">.ColorScheme-Text { color: #232629; }</style>
  </defs>
  <path class="ColorScheme-Text" d="M1 6h11.384a4 4 0 0 1 2.645 1h-3.696a.333.333 0 0 0-.333.333A2.667 2.667 0 0 0 13.667 10h4.373l1.374 1.374.707-.707-.707.707c.191.19.298.386.33.517a.2.2 0 0 1 .01.082l-.01.014C19.42 12.347 18.502 13 16 13H1v2h15c2.822 0 4.393-.74 5.234-1.68.528-.59.603-1.306.451-1.913-.143-.574-.485-1.076-.857-1.447l-4.202-4.203A6 6 0 0 0 12.383 4H1Zm1 10a1 1 0 1 0 0 2h18a1 1 0 1 0 0-2zm4.648-6H1V7h3.315a.5.5 0 0 1 .325.12l2.334 2a.5.5 0 0 1-.326.88" clip-rule="evenodd" fill="currentColor" fill-rule="evenodd"/>
</svg>
