<svg fill="none" viewBox="0 0 22 22" xmlns="http://www.w3.org/2000/svg">
  <defs>
    <style id="current-color-scheme" type="text/css">.ColorScheme-Text { color: #232629; }</style>
  </defs>
  <path class="ColorScheme-Text" d="M6 2a1 1 0 0 0-1 1H2a1 1 0 0 0 0 2v9a1 1 0 0 0 1 1h2.5v2.222l-2.782.819a1 1 0 0 0 .564 1.918l17-5a1 1 0 0 0-.564-1.918L16 14.134V13h3a1 1 0 0 0 1-1V5a1 1 0 1 0 0-2h-3a1 1 0 0 0-1-1Zm8 11h-2v1a1 1 0 0 1-1 1H7.5v1.634l6.5-1.912Zm-4-7v4a1 1 0 0 1-1 1H5a1 1 0 0 1-1-1V6a1 1 0 0 1 1-1h4a1 1 0 0 1 1 1m3 4a1 1 0 0 1-1-1V6a1 1 0 0 1 1-1h4a1 1 0 0 1 1 1v3a1 1 0 0 1-1 1z" clip-rule="evenodd" fill="currentColor" fill-rule="evenodd"/>
</svg>
