<svg fill="none" viewBox="0 0 22 22" xmlns="http://www.w3.org/2000/svg">
  <defs>
    <style id="current-color-scheme" type="text/css">.ColorScheme-Text { color: #232629; }</style>
  </defs>
  <path class="ColorScheme-Text" d="M8.781 2a1 1 0 0 1 1-1h2a1 1 0 0 1 1 1v1h4.22a1 1 0 0 1 1 1v4.604l.744.166a1 1 0 0 1 .745 1.25l-1.596 5.588a1 1 0 0 1-.465.594l-2.299 1.313-.1-.077-1.21-.968-1.239.93c-.74.556-1.33.725-1.8.725-.469 0-1.058-.169-1.8-.725l-1.387-1.04-1.158 1.157-2.3-1.315a1 1 0 0 1-.466-.593L2.073 10.02a1 1 0 0 1 .745-1.251L4 8.507V4a1 1 0 0 1 1-1h3.781zm7.22 6.16-5.003-1.112a1 1 0 0 0-.434 0L6 8.062V5h10zM8.381 18.2l-.694-.52-.613.613c-.747.746-1.697.957-2.543.957a5.5 5.5 0 0 1-1.354-.176l-.07-.02-.01-.003-.316.949-.316.949h.003l.005.002.012.005.04.011.125.037a7.5 7.5 0 0 0 1.88.246c.965 0 2.204-.202 3.317-.999.934.564 1.914.874 2.934.874 1.038 0 2.036-.322 2.985-.905a6.33 6.33 0 0 0 3.452 1.03c.557 0 1.023-.074 1.356-.15a5 5 0 0 0 .518-.149l.02-.007.017-.007.014-.005.005-.002h.002l.001-.001-.37-.929a46 46 0 0 1-.37-.929h.002l.002-.002h.002l-.005.001a3 3 0 0 1-.284.08c-.214.05-.529.1-.91.1-.75 0-1.77-.196-2.813-1.03l-.605-.485-.62.465c-.87.653-1.665.925-2.4.925s-1.529-.272-2.4-.925" clip-rule="evenodd" fill="currentColor" fill-rule="evenodd"/>
</svg>
