<svg fill="none" viewBox="0 0 22 22" xmlns="http://www.w3.org/2000/svg">
  <defs>
    <style id="current-color-scheme" type="text/css">.ColorScheme-Text { color: #232629; }</style>
  </defs>
  <path class="ColorScheme-Text" d="M11 1a2 2 0 0 0-2 2v5.5a.5.5 0 0 1-.2.4l-6.6 4.95a.5.5 0 0 0-.2.4v2.11a.5.5 0 0 0 .621.485l5.758-1.44A.5.5 0 0 1 9 15.89v.86a.5.5 0 0 1-.2.4l-3.6 2.7a.5.5 0 0 0-.2.4v.25a.5.5 0 0 0 .5.5h11a.5.5 0 0 0 .5-.5v-.25a.5.5 0 0 0-.2-.4l-3.6-2.7a.5.5 0 0 1-.2-.4v-.86a.5.5 0 0 1 .621-.485l5.758 1.44A.5.5 0 0 0 20 16.36v-2.11a.5.5 0 0 0-.2-.4L13.2 8.9a.5.5 0 0 1-.2-.4V3a2 2 0 0 0-2-2" clip-rule="evenodd" fill="currentColor" fill-rule="evenodd"/>
</svg>
