<svg xmlns="http://www.w3.org/2000/svg" fill="none" viewBox="0 0 24 24">
  <defs>
    <style type="text/css" id="current-color-scheme">
      .ColorScheme-Text { color: #232629; }
    </style>
  </defs>
  <path fill-rule="evenodd" d="M20 12a8 8 0 1 1-16 0 8 8 0 0 1 16 0m2 0c0 5.523-4.477 10-10 10S2 17.523 2 12 6.477 2 12 2s10 4.477 10 10m-9-5a1 1 0 1 1-2 0 1 1 0 0 1 2 0m-1 2a1 1 0 0 1 1 1v7a1 1 0 1 1-2 0v-7a1 1 0 0 1 1-1" clip-rule="evenodd" style="fill:currentColor" class="ColorScheme-Text"/>
</svg>