<svg xmlns="http://www.w3.org/2000/svg" fill="none" viewBox="0 0 24 24">
  <defs>
    <style type="text/css" id="current-color-scheme">
      .ColorScheme-Text { color: #232629; }
    </style>
  </defs>
  <path fill-rule="evenodd" d="M11.75 8a2 2 0 1 0 0-4 2 2 0 0 0 0 4m4-2a3.998 3.998 0 0 1-1.936 3.427c.511.219.996.518 1.44.89a6.623 6.623 0 0 1 1.44 1.716 3 3 0 0 1 1.424 5.315 5.849 5.849 0 0 1 2.088 1.39c.85.869 1.471 2 1.794 3.262h-1.916a4.927 4.927 0 0 0-1.065-1.684c-.624-.639-1.397-1.048-2.22-1.174a3.678 3.678 0 0 0-2.407.463c-.502.29-.948.692-1.312 1.18.172.39.313.796.42 1.215h-1.916a4.991 4.991 0 0 0-.864-1.465c-.788-.919-1.856-1.435-2.97-1.435s-2.182.516-2.97 1.435A4.994 4.994 0 0 0 3.916 22H2a7.31 7.31 0 0 1 1.507-2.95 5.976 5.976 0 0 1 2.18-1.623 4 4 0 0 1 2.862-7.347c.358-.264.74-.483 1.137-.653A4 4 0 1 1 15.75 6m-2.5 9c0 .95.442 1.798 1.132 2.348-.268.102-.53.227-.786.374A6.12 6.12 0 0 0 12 19.059l-.007-.009a5.976 5.976 0 0 0-2.18-1.623 3.998 3.998 0 0 0 .856-6.162c.05-.015.1-.03.15-.043a3.614 3.614 0 0 1 1.765-.024 3.925 3.925 0 0 1 1.619.824c.159.134.31.28.45.438A2.998 2.998 0 0 0 13.25 15m-5.5 1a2 2 0 1 0 0-4 2 2 0 0 0 0 4m9.5-1a1 1 0 1 1-2 0 1 1 0 0 1 2 0" clip-rule="evenodd" style="fill:currentColor" class="ColorScheme-Text"/>
</svg>