<svg xmlns="http://www.w3.org/2000/svg" fill="none" viewBox="0 0 24 24">
  <defs>
    <style type="text/css" id="current-color-scheme">
      .ColorScheme-Text { color: #232629; }
    </style>
  </defs>
  <path fill-rule="evenodd" d="M9 3a3 3 0 0 0-3 3v1H4a2 2 0 0 0-2 2v10a2 2 0 0 0 2 2h16a2 2 0 0 0 2-2V9a2 2 0 0 0-2-2h-2V6a3 3 0 0 0-3-3zm7 4V6a1 1 0 0 0-1-1H9a1 1 0 0 0-1 1v1zM6 9h-.963c.032.1.08.23.146.384.17.39.459.918.935 1.447C7.045 11.861 8.77 13 12 13c3.23 0 4.955-1.14 5.882-2.169a5.37 5.37 0 0 0 .935-1.447c.066-.154.114-.285.146-.384H7zm-2 2.362V19h16v-7.638a7.475 7.475 0 0 1-.632.807C18.045 13.639 15.77 15 12 15c-3.77 0-6.045-1.36-7.368-2.831A7.476 7.476 0 0 1 4 11.362M9 11a1 1 0 0 1 1-1h4a1 1 0 1 1 0 2h-4a1 1 0 0 1-1-1" clip-rule="evenodd" style="fill:currentColor" class="ColorScheme-Text"/>
</svg>