<svg xmlns="http://www.w3.org/2000/svg" fill="none" viewBox="0 0 24 24">
  <defs>
    <style type="text/css" id="current-color-scheme">
      .ColorScheme-Text { color: #232629; }
    </style>
  </defs>
  <path d="M21.869 8.74a.487.487 0 0 0-.006-.688 14.37 14.37 0 0 0-4.34-2.91A13.94 13.94 0 0 0 12.003 4c-1.893 0-3.769.388-5.518 1.142a14.372 14.372 0 0 0-4.34 2.91.487.487 0 0 0-.006.688l1.346 1.4a.518.518 0 0 0 .73.008c.99-.943 2.131-1.7 3.374-2.235 1.4-.603 2.9-.913 4.415-.913 1.515 0 3.015.31 4.415.913a11.492 11.492 0 0 1 3.375 2.235.517.517 0 0 0 .729-.008z" style="fill:currentColor" class="ColorScheme-Text"/>
  <path fill-rule="evenodd" d="M18.467 12.276a.481.481 0 0 0-.008-.685 9.573 9.573 0 0 0-2.778-1.83A9.294 9.294 0 0 0 12.001 9a9.294 9.294 0 0 0-3.679.761 9.572 9.572 0 0 0-2.777 1.83.481.481 0 0 0-.009.684l1.346 1.4a.53.53 0 0 0 .735.014 6.693 6.693 0 0 1 1.81-1.156A6.507 6.507 0 0 1 12.001 12c.884 0 1.759.181 2.575.533a6.71 6.71 0 0 1 1.81 1.156.53.53 0 0 0 .734-.014zM13.04 19a1 1 0 1 0-2 0 1 1 0 0 0 2 0m-1.578-2.436a2.313 2.313 0 0 1 1.867.352.64.64 0 0 0 .232.1.51.51 0 0 0 .48-.137l1.02-1.061c.188-.195.189-.514-.017-.689a4.822 4.822 0 0 0-1.203-.748 4.77 4.77 0 0 0-1.104-.322 4.622 4.622 0 0 0-1.415-.008l-.056.008a4.645 4.645 0 0 0-1.104.322 4.752 4.752 0 0 0-1.204.748c-.205.175-.204.494-.016.689l1.02 1.06a.51.51 0 0 0 .48.138.64.64 0 0 0 .231-.1 2.374 2.374 0 0 1 .788-.352" clip-rule="evenodd" style="fill:currentColor" class="ColorScheme-Text"/>
</svg>