<?xml version="1.0" encoding="UTF-8" standalone="no"?>
<svg
   xmlns:dc="http://purl.org/dc/elements/1.1/"
   xmlns:cc="http://creativecommons.org/ns#"
   xmlns:rdf="http://www.w3.org/1999/02/22-rdf-syntax-ns#"
   xmlns:svg="http://www.w3.org/2000/svg"
   xmlns="http://www.w3.org/2000/svg"
   id="svg2"
   viewBox="0 0 14 14"
   height="14"
   width="14"
   version="1.1">
  <style type="text/css" id="current-color-scheme"/>
  <path
     d="m 8.5118375,9.5349493 a 1.5,1.5 0 0 1 -1.5,1.4999997 1.5,1.5 0 0 1 -1.5,-1.4999997 1.5,1.5 0 0 1 1.5,-1.5 1.5,1.5 0 0 1 1.5,1.5 z M 2,0 2,14 12,14 12,0 2,0 Z m 5.0703125,0.96875 c 1.1045695,0 2,0.8954305 2,2 0,1.1045695 -0.8954305,2 -2,2 -1.1045695,0 -2,-0.8954305 -2,-2 0,-1.1045695 0.8954305,-2 2,-2 z m -0.060547,5.0195312 a 3.5,3.5 0 0 1 3.5000004,3.5 3.5,3.5 0 0 1 -3.5000004,3.4999998 3.5,3.5 0 0 1 -3.5,-3.4999998 3.5,3.5 0 0 1 3.5,-3.5 z"
     class="ColorScheme-Text" style="fill:currentColor;"
     id="path3337" />
</svg>
