<?xml version="1.0" encoding="UTF-8" standalone="no"?>
<svg
   xmlns:dc="http://purl.org/dc/elements/1.1/"
   xmlns:cc="http://creativecommons.org/ns#"
   xmlns:rdf="http://www.w3.org/1999/02/22-rdf-syntax-ns#"
   xmlns:svg="http://www.w3.org/2000/svg"
   xmlns="http://www.w3.org/2000/svg"
   id="svg2"
   viewBox="0 0 14 14"
   height="14"
   width="14"
   version="1.1">
  <style type="text/css" id="current-color-scheme"/>
  <path
     id="hostel"
     d="M 3.5,1 C 2.671573,1 2,1.671573 2,2.5 2,3.328427 2.671573,4 3.5,4 4.328427,4 5,3.328427 5,2.5 5,1.671573 4.328427,1 3.5,1 Z M 6,2 v 2 h 6 C 12,3 10.963825,2 10,2 Z M 3.5,7 C 2.671573,7 2,7.671573 2,8.5 2,9.328427 2.671573,10 3.5,10 4.328427,10 5,9.328427 5,8.5 5,7.671573 4.328427,7 3.5,7 Z M 6,8 v 2 l 6,0.01288 C 12,9 10.963825,8 10,8 Z"  class="ColorScheme-Text" style="fill:currentColor;"/>
  <rect
     y="1"
     x="0"
     height="13"
     width="1"
     id="rect814"
     style="opacity:1;fill:currentColor;fill-opacity:1;stroke:none;stroke-width:0.12230708;stroke-linecap:square;stroke-miterlimit:4;stroke-dasharray:none;stroke-opacity:1;paint-order:markers stroke fill" class="ColorScheme-Text"/>
  <rect
     ry="0.5"
     y="0"
     x="-5.9604645e-008"
     height="13"
     width="1"
     id="rect814-7"
     style="opacity:1;fill:currentColor;;fill-opacity:1;stroke:none;stroke-width:0.12230708;stroke-linecap:square;stroke-miterlimit:4;stroke-dasharray:none;stroke-opacity:1;paint-order:markers stroke fill" class="ColorScheme-Text"/>
  <rect
     y="4"
     x="13"
     height="10"
     width="1"
     id="rect814-3"
     style="opacity:1;fill:currentColor;;fill-opacity:1;stroke:none;stroke-width:0.1072704;stroke-linecap:square;stroke-miterlimit:4;stroke-dasharray:none;stroke-opacity:1;paint-order:markers stroke fill" class="ColorScheme-Text"/>
  <rect
     ry="0.5"
     y="2"
     x="13"
     height="12"
     width="1"
     id="rect814-7-2"
     style="opacity:1;fill:currentColor;;fill-opacity:1;stroke:none;stroke-width:0.11750884;stroke-linecap:square;stroke-miterlimit:4;stroke-dasharray:none;stroke-opacity:1;paint-order:markers stroke fill" class="ColorScheme-Text"/>
  <rect
     transform="rotate(90)"
     y="-13"
     x="5"
     height="13"
     width="1"
     id="rect814-2"
     style="opacity:1;fill:currentColor;;fill-opacity:1;stroke:none;stroke-width:0.12230708;stroke-linecap:square;stroke-miterlimit:4;stroke-dasharray:none;stroke-opacity:1;paint-order:markers stroke fill" class="ColorScheme-Text"/>
  <rect
     transform="rotate(90)"
     y="-13"
     x="11"
     height="13"
     width="1"
     id="rect814-2-7"
     style="opacity:1;fill:currentColor;;fill-opacity:1;stroke:none;stroke-width:0.12230708;stroke-linecap:square;stroke-miterlimit:4;stroke-dasharray:none;stroke-opacity:1;paint-order:markers stroke fill" class="ColorScheme-Text"/>
</svg>
