<?xml version="1.0" encoding="UTF-8" standalone="no"?>
<svg
   xmlns:dc="http://purl.org/dc/elements/1.1/"
   xmlns:cc="http://creativecommons.org/ns#"
   xmlns:rdf="http://www.w3.org/1999/02/22-rdf-syntax-ns#"
   xmlns:svg="http://www.w3.org/2000/svg"
   xmlns="http://www.w3.org/2000/svg"
   id="svg2"
   viewBox="0 0 14 14"
   height="14"
   width="14"
   version="1.1">
  <style type="text/css" id="current-color-scheme"/>
  <path
     id="path4156"
     d="M 0 0 L 0 1 L 0 2 A 1.9999936 1.9999943 0 0 0 2 4 A 1.9999936 1.9999943 0 0 0 4 2 L 5 2 A 1.9999936 1.9999943 0 0 0 7 4 A 1.9999936 1.9999943 0 0 0 9 2 L 10 2 A 1.9999936 1.9999943 0 0 0 12 4 A 1.9999936 1.9999943 0 0 0 14 2 L 14 1 L 14 0 L 12 0 L 0 0 z "
     class="ColorScheme-Text" style="fill:currentColor;"/>
  <path
     id="path4360"
     d="M 0 5 L 0 9 L 0 11 L 0 14 L 2 14 L 2 11 L 12 11 L 12 14 L 14 14 L 14 11 L 14 9 L 14 5 L 12 5 L 12 9 L 2 9 L 2 5 L 0 5 z "
     class="ColorScheme-Text" style="fill:currentColor;"/>
</svg>
