<?xml version="1.0" encoding="UTF-8" standalone="no"?>
<svg
   xmlns:dc="http://purl.org/dc/elements/1.1/"
   xmlns:cc="http://creativecommons.org/ns#"
   xmlns:rdf="http://www.w3.org/1999/02/22-rdf-syntax-ns#"
   xmlns:svg="http://www.w3.org/2000/svg"
   xmlns="http://www.w3.org/2000/svg"
   width="14"
   height="14"
   viewBox="0 0 14 14"
   id="svg2"
   version="1.1">
  <style type="text/css" id="current-color-scheme"/>
  <path
     id="path4"
     d="M 0,0 V 3 H 1 V 1 h 12 v 2 h 1 V 0 C 9.1718078,0 4.1536389,0 0,0 Z m 3,2 v 12 h 3 v -1 -0.04883 h 0.00195 C 6.0279852,12.418802 6.4669903,12.000405 7,12 c 0.53301,4.05e-4 0.9720209,0.418798 0.9980469,0.951172 H 8 V 13 14 h 3 V 2 H 10 V 13 H 9 C 9,11.895431 8.10457,11 7,11 5.8954305,11 5,11.895431 5,13 H 4 V 2 Z m 2,2 v 6 H 6 V 7.5 h 1.6660156 c 1.7779639,0 1.7779639,-3.5 0,-3.5 z m 1,0.875 h 1.4453125 c 0.9363943,0 0.9363943,1.75 0,1.75 H 6 Z"
     style="fill-rule:evenodd;fill:currentColor;" class="ColorScheme-Text"/>
</svg>
