<?xml version="1.0" encoding="UTF-8" standalone="no"?>
<svg
   xmlns:dc="http://purl.org/dc/elements/1.1/"
   xmlns:cc="http://creativecommons.org/ns#"
   xmlns:rdf="http://www.w3.org/1999/02/22-rdf-syntax-ns#"
   xmlns:svg="http://www.w3.org/2000/svg"
   xmlns="http://www.w3.org/2000/svg"
   version="1.1"
   id="svg109"
   width="14"
   height="14"
   viewBox="0 0 14 14">
  <style type="text/css" id="current-color-scheme"/>
  <g transform="matrix(-0.12936428,0.12826107,-0.12936428,-0.12826107,161.72173,128.62232)">
    <path
       id="path2"
       transform="matrix(-3.8650546,-3.8650546,3.898299,-3.898299,123.65505,1126.4716)"
       d="M 0,0 V 3 H 1 V 1 h 12 v 2 h 1 V 0 Z m 3,2 v 12 c 1,0 2,0 3,0 v -1 -0.04883 h 0.00195 C 6.0279788,12.418798 6.4669903,12.000405 7,12 c 0.5330097,4.05e-4 0.9720212,0.418798 0.9980469,0.951172 H 8 V 13 14 c 1,0 2,0 3,0 V 2 H 10 V 8 H 4 V 2 Z m 1,7 6,0.00195 V 13 H 9 C 9,11.895431 8.1045695,11 7,11 5.8954305,11 5,11.895431 5,13 H 4 Z"
        class="ColorScheme-Text" style="fill:currentColor;"/>
  </g>
</svg>
