<?xml version="1.0" encoding="UTF-8"?>
<svg version="1.1" viewBox="0 0 14 14" xmlns="http://www.w3.org/2000/svg" xmlns:cc="http://creativecommons.org/ns#" xmlns:dc="http://purl.org/dc/elements/1.1/" xmlns:rdf="http://www.w3.org/1999/02/22-rdf-syntax-ns#">
<style type="text/css" id="current-color-scheme"/>
<path d="m0.82924 10.095h3.3722l-0.44665 3.9051h-2.5459z" class="ColorScheme-Text" style="fill:currentColor;"/>
<path d="m1.3678 0.069465c-3.9978 2.6001 3.2253 3.0269-1.2178 6.1111l0.87772-0.01179c4.1676-3.2915-3.0949-3.5323 1.3044-6.1262z" class="ColorScheme-Text" style="fill:currentColor;"/>
<path d="m4.4017 0.070365c-3.9978 2.6001 3.2253 3.0269-1.2178 6.1111l0.87772-0.01179c4.1676-3.2915-3.0949-3.5323 1.3044-6.1262z" class="ColorScheme-Text" style="fill:currentColor;"/>
<circle cx="10.209" cy="2.2245" r="1.3921" class="ColorScheme-Text" style="fill:currentColor;"/>
<rect transform="matrix(.6376 -.77037 .71155 .70264 0 0)" x="-5.3508" y="13.111" width="5.3022" height="1.3776" ry=".6888" class="ColorScheme-Text" style="fill:currentColor;"/>
<rect transform="matrix(.94618 -.32365 .32524 .94563 0 0)" x="3.7086" y="9.5685" width="3.755" height=".96227" ry=".48114" class="ColorScheme-Text" style="fill:currentColor;"/>
<rect transform="matrix(-.45288 .89157 -.88823 -.4594 0 0)" x="-1.4435" y="-12.573" width="3.7087" height=".95127" ry=".47564" class="ColorScheme-Text" style="fill:currentColor;"/>
<rect transform="matrix(1 .0017978 -.00063981 1 0 0)" x="8.7215" y="9.4976" width="5.285" height="1.2863" ry=".64314" class="ColorScheme-Text" style="fill:currentColor;"/>
<rect x="10.591" y="12.1" width="3.409" height=".7292" class="ColorScheme-Text" style="fill:currentColor;"/>
<rect transform="matrix(.33821 .94107 -.94088 .33873 0 0)" x="7.6403" y="-9.7823" width="7.0859" height="1.3251" ry=".66257" class="ColorScheme-Text" style="fill:currentColor;"/>
</svg>
